PathFileType	4	(X/Y/Z)	1H_rest_slow_right.trc
DataRate	CameraRate	NumFrames	NumMarkers	Units	OrigDataRate	OrigDataStartFrame	OrigNumFrames
250.00	250.00	12	18	mm	250.00	13239	21182
Frame#	Time	c7	r_should	l_should	clavicle	r_upa	r_elb_l	r_elb_m	r_low	r_wri_l	r_wri_m	r_met	l_upa	l_elb_l	l_elb_m	l_low	l_wri_l	l_wri_m	l_met
	X1	Y1	Z1	X2	Y2	Z2	X3	Y3	Z3	X4	Y4	Z4	X5	Y5	Z5	X6	Y6	Z6	X7	Y7	Z7	X8	Y8	Z8	X9	Y9	Z9	X10	Y10	Z10	X11	Y11	Z11	X12	Y12	Z12	X13	Y13	Z13	X14	Y14	Z14	X15	Y15	Z15	X16	Y16	Z16	X17	Y17	Z17	X18	Y18	Z18
13239	52.95200	569.59711	1414.40967	285.94284	628.97925	1364.04419	423.23685	606.68689	1374.79285	109.40971	714.77069	1294.53589	257.12015	686.09283	1168.04272	488.73288	697.84235	1098.59546	503.33310	697.04803	1051.30127	421.69058	821.31464	1154.55212	459.09006	862.24493	1197.72363	419.71246	901.82446	1137.29358	412.03101	926.07080	1244.16907	450.92068	610.77106	1186.57996	30.54086	628.06970	1078.77600	18.09879	579.64392	1039.55457	82.84043	674.87592	915.61224	20.88999	705.17560	843.89496	55.41623	642.87860	822.75793	22.42098	736.72168	756.47296	27.06593
13240	52.95600	569.58124	1414.40491	285.92303	628.91052	1364.11926	423.26498	606.67517	1374.78748	109.38057	714.75690	1294.53589	257.09885	686.02551	1168.03882	488.73746	697.77478	1098.58264	503.33499	696.90924	1051.26965	421.73508	821.40857	1154.29358	459.10226	862.44177	1197.32544	419.69907	901.89520	1136.78357	412.03839	926.31708	1243.68958	450.90042	610.78766	1186.58386	30.50885	628.09534	1078.78113	18.06310	579.67505	1039.54260	82.80353	674.91962	915.61444	20.84178	705.21924	843.89856	55.36062	642.93127	822.75067	22.36793	736.77380	756.47803	27.00645
13241	52.96000	569.56769	1414.40186	285.90323	628.90552	1364.14978	423.25409	606.66351	1374.78076	109.35654	714.74170	1294.53235	257.07874	685.96240	1168.02979	488.74133	697.70911	1098.55957	503.33862	696.76404	1051.23047	421.79041	821.50293	1154.02234	459.11523	862.63501	1196.93030	419.69293	901.98352	1136.21973	412.05984	926.57520	1243.18311	450.87714	610.80743	1186.58191	30.47696	628.12195	1078.77820	18.03028	579.70319	1039.52722	82.76537	674.96185	915.61713	20.79489	705.26440	843.90259	55.31157	642.98798	822.74542	22.31636	736.83075	756.48376	26.94756
13242	52.96400	569.55817	1414.40198	285.87900	628.91766	1364.16699	423.23901	606.64990	1374.77368	109.33650	714.73059	1294.52258	257.05820	685.89771	1168.02673	488.75345	697.64435	1098.53870	503.34674	696.62067	1051.19653	421.84695	821.60419	1153.74390	459.12778	862.81732	1196.55261	419.68433	902.07922	1135.60205	412.08524	926.85675	1242.65784	450.85791	610.82501	1186.58020	30.45022	628.14893	1078.77856	17.99937	579.72595	1039.51196	82.72879	675.00421	915.62115	20.75285	705.31213	843.90527	55.26487	643.04266	822.74261	22.26159	736.89606	756.48669	26.89477
13243	52.96800	569.54907	1414.39893	285.85727	628.93323	1364.18726	423.22794	606.63257	1374.76575	109.32150	714.72156	1294.51453	257.04373	685.83813	1168.02588	488.76691	697.57819	1098.51440	503.35999	696.47998	1051.16577	421.90164	821.70331	1153.47339	459.13312	862.99469	1196.17529	419.67303	902.15698	1135.08093	412.10477	927.14136	1242.14758	450.84412	610.84174	1186.57043	30.43312	628.17255	1078.78284	17.97171	579.74261	1039.49915	82.70026	675.04773	915.62915	20.71560	705.36169	843.90851	55.21782	643.09485	822.74188	22.20768	736.96326	756.49335	26.84385
13244	52.97200	569.54053	1414.39600	285.83820	628.95166	1364.20325	423.21060	606.61926	1374.75708	109.30592	714.70837	1294.50562	257.03000	685.78137	1168.02917	488.78207	697.51154	1098.48706	503.37314	696.33978	1051.14075	421.95441	821.80756	1153.20654	459.13794	863.18054	1195.78833	419.65540	902.23444	1134.56372	412.12213	927.41846	1241.65808	450.83685	610.85748	1186.56531	30.41305	628.19586	1078.78552	17.94409	579.75775	1039.48669	82.66891	675.09735	915.63043	20.67836	705.41376	843.91327	55.16993	643.15131	822.74500	22.15902	737.02850	756.50922	26.79232
13245	52.97600	569.53253	1414.39819	285.81970	628.96851	1364.22229	423.19171	606.60828	1374.74927	109.28762	714.69818	1294.50342	257.01715	685.72522	1168.02917	488.79376	697.45227	1098.44604	503.38889	696.20837	1051.10815	422.00482	821.91632	1152.93774	459.13379	863.37115	1195.39136	419.63971	902.30518	1134.02820	412.16922	927.69739	1241.15198	450.81348	610.86957	1186.56091	30.39266	628.22021	1078.78394	17.92244	579.78693	1039.46692	82.63673	675.14166	915.63208	20.63749	705.46564	843.91791	55.11720	643.20935	822.74524	22.11428	737.09723	756.52478	26.73950
13246	52.98000	569.52728	1414.40601	285.79556	628.98358	1364.24133	423.17490	606.60071	1374.73657	109.26917	714.69086	1294.49792	256.99561	685.68292	1168.02637	488.80457	697.39117	1098.40979	503.41165	696.07166	1051.07361	422.05746	822.02472	1152.66675	459.12650	863.56195	1194.98645	419.61676	902.36151	1133.50574	412.22418	927.98291	1240.62207	450.77872	610.87909	1186.54968	30.37484	628.24310	1078.77710	17.90190	579.82172	1039.44495	82.60858	675.18903	915.63739	20.59908	705.52039	843.92426	55.07095	643.26465	822.74609	22.06521	737.17371	756.54327	26.68734
13247	52.98400	569.52515	1414.41040	285.77191	629.00635	1364.25708	423.16046	606.59686	1374.72571	109.25410	714.68500	1294.48486	256.96274	685.63782	1168.02527	488.80856	697.33490	1098.36621	503.42404	695.94586	1051.03418	422.10306	822.12415	1152.40210	459.12436	863.75555	1194.58838	419.59042	902.42926	1132.99512	412.24426	928.27368	1240.08679	450.75696	610.89252	1186.53967	30.35466	628.26605	1078.77026	17.87448	579.84601	1039.42688	82.58327	675.24200	915.63708	20.56395	705.57983	843.92859	55.03037	643.32721	822.74323	22.01944	737.25513	756.56213	26.63690
13248	52.98800	569.52594	1414.41382	285.75116	629.03510	1364.26538	423.14145	606.59521	1374.71692	109.23721	714.68225	1294.47778	256.93817	685.59058	1168.02100	488.81308	697.27625	1098.32739	503.42728	695.81793	1051.00037	422.14642	822.22424	1152.13599	459.11789	863.94098	1194.19470	419.55682	902.50360	1132.47180	412.24915	928.54773	1239.56519	450.74835	610.90955	1186.53601	30.33554	628.29034	1078.76660	17.84475	579.87335	1039.41174	82.55677	675.29504	915.64014	20.52574	705.64099	843.93726	54.98837	643.38696	822.74658	21.97588	737.33234	756.58630	26.58239
13249	52.99200	569.52332	1414.41638	285.72916	629.06500	1364.28064	423.12241	606.58978	1374.71082	109.22057	714.67865	1294.47241	256.92218	685.54810	1168.00952	488.82611	697.21576	1098.29102	503.43497	695.68793	1050.96326	422.20013	822.32202	1151.85803	459.11499	864.12677	1193.79492	419.52808	902.57977	1131.94434	412.26334	928.81390	1239.04822	450.72397	610.92053	1186.53027	30.30911	628.30957	1078.76965	17.81879	579.90979	1039.40076	82.52400	675.34540	915.65222	20.48885	705.69958	843.95197	54.95103	643.44427	822.75110	21.94006	737.40790	756.61078	26.52948
13250	52.99600	569.52380	1414.41833	285.71198	629.09485	1364.29895	423.11395	606.58307	1374.71021	109.20260	714.67371	1294.46704	256.89883	685.50574	1167.99829	488.83694	697.15961	1098.25391	503.44174	695.56201	1050.91882	422.25330	822.41449	1151.57959	459.11145	864.31586	1193.38293	419.51093	902.64911	1131.42517	412.28540	929.08990	1238.51038	450.69580	610.92255	1186.53064	30.28168	628.33276	1078.77185	17.79482	579.94189	1039.39209	82.50122	675.39594	915.66711	20.45734	705.75482	843.96136	54.91805	643.50604	822.75079	21.90812	737.47955	756.63013	26.48228
